<?xml version="1.0" standalone="no"?>
<!DOCTYPE svg PUBLIC "-//W3C//DTD SVG 20010904//EN"
 "http://www.w3.org/TR/2001/REC-SVG-20010904/DTD/svg10.dtd">
<svg version="1.0" xmlns="http://www.w3.org/2000/svg"
 width="418.000000pt" height="418.000000pt" viewBox="0 0 418.000000 418.000000"
 preserveAspectRatio="xMidYMid meet">
<metadata>
Created by potrace 1.11, written by Peter Selinger 2001-2013
</metadata>
<g transform="translate(0.000000,418.000000) scale(0.100000,-0.100000)"
fill="#000000" stroke="none">
<path d="M1825 4044 c-22 -23 -82 -36 -188 -41 -60 -3 -93 -1 -103 8 -16 13
-670 27 -718 15 -24 -6 -26 -10 -26 -59 0 -29 4 -57 10 -63 5 -5 13 -44 16
-86 6 -65 11 -81 35 -107 15 -17 32 -31 38 -31 13 0 29 -238 31 -452 0 -52 2
-58 21 -58 21 0 49 21 49 38 0 5 24 12 53 16 65 7 444 8 474 0 17 -5 21 -12
18 -37 -3 -18 -7 -54 -10 -80 l-6 -49 -42 8 c-38 6 -84 8 -160 5 -19 -1 -33
-9 -44 -28 -9 -16 -35 -43 -59 -61 -41 -30 -71 -78 -89 -139 -3 -13 -11 -23
-16 -23 -5 0 -9 -38 -9 -83 0 -86 2 -91 56 -182 56 -95 76 -139 65 -143 -6 -2
-11 -19 -11 -37 0 -19 -4 -37 -10 -40 -5 -3 -10 -30 -10 -58 0 -41 -4 -55 -20
-65 -11 -7 -20 -20 -20 -31 0 -10 -9 -26 -20 -36 -11 -10 -33 -38 -47 -61 -15
-24 -37 -45 -48 -46 -13 -2 -21 -12 -23 -30 -2 -16 -8 -28 -13 -28 -5 0 -9
-30 -9 -67 0 -40 -6 -78 -15 -93 -28 -50 -45 -93 -45 -115 0 -13 -6 -25 -14
-28 -12 -5 -25 -55 -29 -117 -1 -14 -12 -33 -24 -43 -13 -10 -23 -29 -23 -43
0 -13 -4 -24 -10 -24 -14 0 -40 -55 -40 -83 0 -14 -6 -30 -14 -36 -8 -7 -17
-28 -21 -48 -3 -20 -16 -48 -27 -63 -11 -16 -18 -34 -16 -42 6 -16 -24 -79
-46 -97 -9 -8 -16 -28 -16 -46 0 -18 -7 -38 -15 -45 -8 -7 -15 -18 -15 -26 0
-7 -13 -28 -28 -46 -41 -49 -62 -85 -62 -108 0 -12 -14 -48 -30 -82 -17 -33
-30 -70 -30 -83 0 -13 -7 -25 -15 -29 -8 -3 -15 -12 -15 -20 0 -8 -11 -27 -24
-43 -14 -16 -28 -43 -31 -59 -4 -16 -10 -38 -15 -49 -18 -43 -24 -60 -25 -70
-1 -20 -17 -35 -35 -35 -25 0 -32 -28 -28 -110 l3 -65 240 0 c222 0 242 1 269
20 34 23 64 25 427 31 l257 5 4 31 c4 21 -1 37 -14 50 -15 15 -18 34 -18 112
0 71 4 97 15 106 8 7 15 25 15 41 0 16 5 29 11 29 20 0 38 34 39 72 0 20 4 39
9 43 16 9 41 66 41 92 0 16 6 23 20 23 13 0 20 7 20 20 0 11 7 23 15 26 8 4
15 17 15 31 0 13 10 48 23 76 13 29 28 66 33 82 5 17 19 34 32 40 15 6 22 18
22 36 0 15 7 32 15 39 9 7 15 29 15 51 0 21 5 41 10 44 6 3 10 19 10 35 0 15
7 30 15 34 8 3 15 16 15 30 0 13 11 37 24 53 13 15 27 39 31 52 4 14 18 45 31
69 13 25 24 54 24 64 0 11 9 31 20 45 11 14 20 34 20 43 0 10 16 27 35 39 l35
20 6 -25 c3 -13 13 -28 20 -32 19 -11 26 -41 31 -142 3 -49 11 -93 19 -105 8
-11 14 -32 14 -47 0 -15 5 -30 10 -33 6 -3 10 -24 10 -46 0 -26 5 -42 15 -45
8 -4 15 -16 15 -29 0 -38 21 -84 41 -90 10 -4 19 -12 19 -19 0 -7 11 -23 25
-36 14 -13 25 -31 25 -40 0 -8 6 -24 14 -35 7 -11 16 -42 20 -68 4 -27 14 -51
22 -54 8 -3 14 -14 14 -24 0 -10 5 -19 10 -19 6 0 10 -9 10 -20 0 -18 23 -64
40 -80 3 -3 6 -12 8 -20 6 -33 36 -90 47 -90 14 0 25 -22 25 -49 0 -10 11 -23
24 -29 16 -7 25 -22 29 -49 4 -22 16 -48 27 -58 11 -10 18 -20 16 -24 -6 -9
69 -157 91 -179 7 -7 13 -20 13 -29 0 -27 33 -42 90 -43 57 0 84 12 126 57 12
13 31 23 43 23 14 0 21 6 21 19 0 10 9 21 20 24 11 3 20 14 20 25 0 10 16 35
35 55 19 20 35 40 35 44 0 5 15 17 33 28 39 23 57 40 57 54 0 6 4 11 8 11 5 0
29 20 54 45 25 25 52 45 59 45 19 1 49 25 49 39 0 6 10 15 23 20 33 13 87 60
87 77 0 8 8 18 18 21 9 4 45 33 80 65 34 32 67 58 73 58 14 0 77 47 111 82 15
15 48 39 74 53 26 14 53 30 60 36 7 6 33 12 56 14 24 1 58 5 76 9 33 8 33 8
30 59 -3 49 -5 52 -45 71 -23 12 -45 29 -48 39 -4 9 -23 29 -43 44 -46 34
-177 165 -184 185 -4 8 -20 18 -37 21 -22 5 -35 15 -42 34 -6 16 -15 36 -20
45 -5 10 -9 28 -9 42 0 13 -7 29 -15 36 -8 7 -15 25 -15 41 0 18 -6 30 -19 34
-24 7 -51 -4 -51 -21 0 -8 -6 -17 -14 -20 -8 -3 -17 -17 -20 -30 -4 -14 -18
-29 -32 -34 -13 -5 -27 -18 -31 -27 -4 -10 -12 -22 -20 -26 -7 -4 -13 -15 -13
-22 0 -8 -4 -15 -8 -15 -4 0 -39 -31 -77 -70 -39 -38 -74 -69 -78 -70 -5 0
-23 -11 -41 -25 -18 -14 -38 -25 -43 -25 -6 0 -16 -7 -23 -15 -14 -17 -30 -20
-30 -6 0 5 -13 23 -30 41 -16 18 -30 41 -30 51 0 10 -6 19 -14 19 -9 0 -17 16
-21 42 -4 23 -14 48 -21 56 -8 7 -14 22 -14 32 0 10 -4 22 -10 25 -5 3 -10 13
-10 22 0 9 -9 24 -21 34 -11 10 -22 30 -24 45 -2 23 -47 73 -67 74 -5 0 -8 5
-8 12 0 6 -11 25 -24 42 -13 17 -27 51 -31 74 -4 24 -13 46 -20 48 -16 6 -35
56 -35 90 0 13 -4 24 -10 24 -5 0 -10 14 -10 30 0 18 -5 30 -13 30 -7 0 -18
12 -24 28 -7 15 -16 34 -21 42 -28 47 -32 68 -32 160 l0 100 28 0 c63 0 132
61 132 117 0 12 7 28 15 37 8 8 18 28 21 45 4 17 13 36 20 42 8 6 14 18 14 26
0 9 12 30 28 48 85 102 90 123 42 169 -17 15 -37 41 -46 57 -11 22 -22 29 -45
29 -17 0 -28 4 -24 9 6 11 -10 16 -80 27 -62 9 -299 9 -314 0 -13 -8 -51 28
-51 48 0 8 -4 18 -10 21 -5 3 -10 17 -10 30 0 14 -9 29 -20 35 -16 9 -20 21
-20 63 -1 30 -7 60 -15 71 -10 13 -15 43 -15 85 0 68 -20 143 -39 149 -6 2
-11 13 -11 24 0 11 -13 32 -28 46 -16 15 -31 35 -35 45 -4 11 -16 21 -27 24
-11 3 -20 13 -20 23 0 10 -7 23 -15 30 -8 7 -15 21 -15 32 0 11 -19 39 -42 63
-93 92 -99 101 -106 151 -7 48 -8 49 -43 52 -24 2 -42 -3 -54 -14z"/>
</g>
</svg>
